<svg width="631" height="430" viewBox="0 0 631 430" fill="none" xmlns="http://www.w3.org/2000/svg">
<g clip-path="url(#clip0_0_1)">
<path d="M555.64 364.9L556.255 351.074C562.661 347.647 569.807 345.837 577.071 345.801C567.073 353.98 568.322 369.745 561.544 380.743C557.209 387.659 549.965 392.226 541.86 393.155L533.493 398.281C531.17 385.321 534.635 371.993 542.974 361.809C545.314 359.009 547.997 356.515 550.96 354.385C552.963 359.672 555.64 364.9 555.64 364.9Z" fill="#F2F2F2"/>
<path d="M132.712 349.749L112.522 343.632C109.875 332.869 109.893 321.621 112.575 310.866C120.889 328.73 144.645 332.82 158.337 346.985C166.918 356.001 170.936 368.432 169.255 380.768L173.674 395.07C153.658 393.625 135.278 383.482 123.377 367.314C120.122 362.799 117.449 357.893 115.419 352.71C123.982 351.738 132.712 349.749 132.712 349.749Z" fill="#F2F2F2"/>
<path d="M485.683 396.02C485.68 396.438 485.514 396.839 485.219 397.137C484.925 397.43 484.526 397.594 484.111 397.593H477.79C476.924 397.596 476.22 396.897 476.217 396.031V204.755C476.217 200.539 474.802 197.117 473.065 197.109H79.5876C77.8422 197.117 76.435 200.539 76.4271 204.755V394.848C76.4244 395.658 75.8096 396.334 75.0041 396.413C73.7305 396.539 72.4569 396.649 71.1911 396.751C71.1597 396.751 71.1282 396.759 71.0968 396.759C70.4049 396.822 69.7131 396.869 69.0212 396.924H69.0134C68.6517 396.272 68.3058 395.603 67.952 394.934C67.8386 394.707 67.7794 394.457 67.7791 394.203V194.836C67.7791 193.672 67.8262 192.5 67.9048 191.343C68.017 189.755 68.2138 188.174 68.4945 186.608C69.8231 179.3 72.8264 174.352 76.2384 174.336H476.406C476.904 174.339 477.396 174.444 477.853 174.643C478.523 174.94 479.129 175.364 479.637 175.893C480.327 176.611 480.916 177.418 481.39 178.293C483.073 181.258 484.276 185.679 484.7 190.824C484.7 190.871 484.708 190.918 484.708 190.966C484.818 192.24 484.873 193.538 484.865 194.836L484.975 211.694L485.046 221.747L485.259 253.291L485.337 264.493L485.683 396.02Z" fill="#E6E6E6"/>
<path d="M339.65 116.019H299.55C298.369 116.021 297.413 116.98 297.414 118.162V181.545H341.792V118.162C341.792 116.979 340.834 116.02 339.652 116.019H339.65ZM319.735 152.033C317.125 152.02 315.012 149.906 315 147.295V139.984C315 137.367 317.12 135.246 319.735 135.246C322.35 135.246 324.47 137.367 324.47 139.984V147.295C324.458 149.906 322.345 152.02 319.735 152.033Z" fill="#CCCCCC"/>
<path d="M297.276 179.518V185.633C297.278 186.293 297.812 186.827 298.471 186.828H340.735C341.393 186.825 341.926 186.292 341.929 185.633V179.518H297.276Z" fill="#3F3D56"/>
<path d="M406.052 17.1031H234.641C231.575 17.108 229.09 19.5939 229.085 22.6618V138.398C229.088 141.467 231.574 143.954 234.641 143.957H406.052C409.119 143.954 411.604 141.467 411.607 138.398V22.6618C411.602 19.5939 409.118 17.108 406.052 17.1031Z" fill="#E6E6E6"/>
<path d="M404.621 21.1181H236.073C234.431 21.1217 233.102 22.4543 233.102 24.0971V136.965C233.105 138.605 234.433 139.935 236.073 139.938H404.621C406.261 139.935 407.589 138.605 407.592 136.965V24.0971C407.592 22.4543 406.263 21.1217 404.621 21.1181Z" fill="white"/>
<path d="M371.791 188.956H271.514C270.495 188.956 269.669 188.13 269.669 187.111C269.669 186.983 269.682 186.855 269.709 186.73L271.265 179.336C271.447 178.484 272.198 177.874 273.069 177.871H370.235C371.106 177.874 371.857 178.484 372.04 179.336L373.596 186.73C373.805 187.728 373.167 188.707 372.171 188.917C372.046 188.943 371.918 188.956 371.791 188.956Z" fill="#CCCCCC"/>
<path d="M276.486 179.202H274.165C273.953 179.202 273.781 179.374 273.781 179.586V180.672C273.781 180.884 273.953 181.056 274.165 181.056H276.486C276.698 181.056 276.87 180.884 276.87 180.672V179.586C276.87 179.374 276.698 179.202 276.486 179.202Z" fill="#E6E6E6"/>
<path d="M282.663 179.202H280.342C280.13 179.202 279.958 179.374 279.958 179.586V180.672C279.958 180.884 280.13 181.056 280.342 181.056H282.663C282.875 181.056 283.047 180.884 283.047 180.672V179.586C283.047 179.374 282.875 179.202 282.663 179.202Z" fill="#E6E6E6"/>
<path d="M288.84 179.202H286.519C286.307 179.202 286.135 179.374 286.135 179.586V180.672C286.135 180.884 286.307 181.056 286.519 181.056H288.84C289.052 181.056 289.224 180.884 289.224 180.672V179.586C289.224 179.374 289.052 179.202 288.84 179.202Z" fill="#E6E6E6"/>
<path d="M295.017 179.202H292.696C292.484 179.202 292.312 179.374 292.312 179.586V180.672C292.312 180.884 292.484 181.056 292.696 181.056H295.017C295.229 181.056 295.4 180.884 295.4 180.672V179.586C295.4 179.374 295.229 179.202 295.017 179.202Z" fill="#E6E6E6"/>
<path d="M301.193 179.202H298.873C298.661 179.202 298.489 179.374 298.489 179.586V180.672C298.489 180.884 298.661 181.056 298.873 181.056H301.193C301.405 181.056 301.577 180.884 301.577 180.672V179.586C301.577 179.374 301.405 179.202 301.193 179.202Z" fill="#E6E6E6"/>
<path d="M307.37 179.202H305.05C304.838 179.202 304.666 179.374 304.666 179.586V180.672C304.666 180.884 304.838 181.056 305.05 181.056H307.37C307.582 181.056 307.754 180.884 307.754 180.672V179.586C307.754 179.374 307.582 179.202 307.37 179.202Z" fill="#E6E6E6"/>
<path d="M313.547 179.202H311.226C311.014 179.202 310.843 179.374 310.843 179.586V180.672C310.843 180.884 311.014 181.056 311.226 181.056H313.547C313.759 181.056 313.931 180.884 313.931 180.672V179.586C313.931 179.374 313.759 179.202 313.547 179.202Z" fill="#E6E6E6"/>
<path d="M319.724 179.202H317.403C317.191 179.202 317.019 179.374 317.019 179.586V180.672C317.019 180.884 317.191 181.056 317.403 181.056H319.724C319.936 181.056 320.108 180.884 320.108 180.672V179.586C320.108 179.374 319.936 179.202 319.724 179.202Z" fill="#E6E6E6"/>
<path d="M325.901 179.202H323.58C323.368 179.202 323.196 179.374 323.196 179.586V180.672C323.196 180.884 323.368 181.056 323.58 181.056H325.901C326.113 181.056 326.285 180.884 326.285 180.672V179.586C326.285 179.374 326.113 179.202 325.901 179.202Z" fill="#E6E6E6"/>
<path d="M332.078 179.202H329.757C329.545 179.202 329.373 179.374 329.373 179.586V180.672C329.373 180.884 329.545 181.056 329.757 181.056H332.078C332.29 181.056 332.462 180.884 332.462 180.672V179.586C332.462 179.374 332.29 179.202 332.078 179.202Z" fill="#E6E6E6"/>
<path d="M338.255 179.202H335.934C335.722 179.202 335.55 179.374 335.55 179.586V180.672C335.55 180.884 335.722 181.056 335.934 181.056H338.255C338.467 181.056 338.638 180.884 338.638 180.672V179.586C338.638 179.374 338.467 179.202 338.255 179.202Z" fill="#E6E6E6"/>
<path d="M344.431 179.202H342.111C341.899 179.202 341.727 179.374 341.727 179.586V180.672C341.727 180.884 341.899 181.056 342.111 181.056H344.431C344.643 181.056 344.815 180.884 344.815 180.672V179.586C344.815 179.374 344.643 179.202 344.431 179.202Z" fill="#E6E6E6"/>
<path d="M350.608 179.202H348.288C348.076 179.202 347.904 179.374 347.904 179.586V180.672C347.904 180.884 348.076 181.056 348.288 181.056H350.608C350.82 181.056 350.992 180.884 350.992 180.672V179.586C350.992 179.374 350.82 179.202 350.608 179.202Z" fill="#E6E6E6"/>
<path d="M356.785 179.202H354.464C354.252 179.202 354.081 179.374 354.081 179.586V180.672C354.081 180.884 354.252 181.056 354.464 181.056H356.785C356.997 181.056 357.169 180.884 357.169 180.672V179.586C357.169 179.374 356.997 179.202 356.785 179.202Z" fill="#E6E6E6"/>
<path d="M362.962 179.202H360.641C360.429 179.202 360.257 179.374 360.257 179.586V180.672C360.257 180.884 360.429 181.056 360.641 181.056H362.962C363.174 181.056 363.346 180.884 363.346 180.672V179.586C363.346 179.374 363.174 179.202 362.962 179.202Z" fill="#E6E6E6"/>
<path d="M369.139 179.202H366.818C366.606 179.202 366.434 179.374 366.434 179.586V180.672C366.434 180.884 366.606 181.056 366.818 181.056H369.139C369.351 181.056 369.523 180.884 369.523 180.672V179.586C369.523 179.374 369.351 179.202 369.139 179.202Z" fill="#E6E6E6"/>
<path d="M276.413 182.292H274.092C273.88 182.292 273.708 182.464 273.708 182.676V183.762C273.708 183.975 273.88 184.146 274.092 184.146H276.413C276.625 184.146 276.797 183.975 276.797 183.762V182.676C276.797 182.464 276.625 182.292 276.413 182.292Z" fill="#E6E6E6"/>
<path d="M282.59 182.292H280.269C280.057 182.292 279.885 182.464 279.885 182.676V183.762C279.885 183.975 280.057 184.146 280.269 184.146H282.59C282.802 184.146 282.974 183.975 282.974 183.762V182.676C282.974 182.464 282.802 182.292 282.59 182.292Z" fill="#E6E6E6"/>
<path d="M288.767 182.292H286.446C286.234 182.292 286.062 182.464 286.062 182.676V183.762C286.062 183.975 286.234 184.146 286.446 184.146H288.767C288.979 184.146 289.151 183.975 289.151 183.762V182.676C289.151 182.464 288.979 182.292 288.767 182.292Z" fill="#E6E6E6"/>
<path d="M294.944 182.292H292.623C292.411 182.292 292.239 182.464 292.239 182.676V183.762C292.239 183.975 292.411 184.146 292.623 184.146H294.944C295.156 184.146 295.327 183.975 295.327 183.762V182.676C295.327 182.464 295.156 182.292 294.944 182.292Z" fill="#E6E6E6"/>
<path d="M301.12 182.292H298.8C298.588 182.292 298.416 182.464 298.416 182.676V183.762C298.416 183.975 298.588 184.146 298.8 184.146H301.12C301.332 184.146 301.504 183.975 301.504 183.762V182.676C301.504 182.464 301.332 182.292 301.12 182.292Z" fill="#E6E6E6"/>
<path d="M307.297 182.292H304.977C304.765 182.292 304.593 182.464 304.593 182.676V183.762C304.593 183.975 304.765 184.146 304.977 184.146H307.297C307.509 184.146 307.681 183.975 307.681 183.762V182.676C307.681 182.464 307.509 182.292 307.297 182.292Z" fill="#E6E6E6"/>
<path d="M313.474 182.292H311.153C310.941 182.292 310.77 182.464 310.77 182.676V183.762C310.77 183.975 310.941 184.146 311.153 184.146H313.474C313.686 184.146 313.858 183.975 313.858 183.762V182.676C313.858 182.464 313.686 182.292 313.474 182.292Z" fill="#E6E6E6"/>
<path d="M319.651 182.292H317.33C317.118 182.292 316.946 182.464 316.946 182.676V183.762C316.946 183.975 317.118 184.146 317.33 184.146H319.651C319.863 184.146 320.035 183.975 320.035 183.762V182.676C320.035 182.464 319.863 182.292 319.651 182.292Z" fill="#E6E6E6"/>
<path d="M325.828 182.292H323.507C323.295 182.292 323.123 182.464 323.123 182.676V183.762C323.123 183.975 323.295 184.146 323.507 184.146H325.828C326.04 184.146 326.212 183.975 326.212 183.762V182.676C326.212 182.464 326.04 182.292 325.828 182.292Z" fill="#E6E6E6"/>
<path d="M332.005 182.292H329.684C329.472 182.292 329.3 182.464 329.3 182.676V183.762C329.3 183.975 329.472 184.146 329.684 184.146H332.005C332.217 184.146 332.389 183.975 332.389 183.762V182.676C332.389 182.464 332.217 182.292 332.005 182.292Z" fill="#E6E6E6"/>
<path d="M338.182 182.292H335.861C335.649 182.292 335.477 182.464 335.477 182.676V183.762C335.477 183.975 335.649 184.146 335.861 184.146H338.182C338.394 184.146 338.565 183.975 338.565 183.762V182.676C338.565 182.464 338.394 182.292 338.182 182.292Z" fill="#E6E6E6"/>
<path d="M344.358 182.292H342.038C341.826 182.292 341.654 182.464 341.654 182.676V183.762C341.654 183.975 341.826 184.146 342.038 184.146H344.358C344.57 184.146 344.742 183.975 344.742 183.762V182.676C344.742 182.464 344.57 182.292 344.358 182.292Z" fill="#E6E6E6"/>
<path d="M350.535 182.292H348.215C348.003 182.292 347.831 182.464 347.831 182.676V183.762C347.831 183.975 348.003 184.146 348.215 184.146H350.535C350.747 184.146 350.919 183.975 350.919 183.762V182.676C350.919 182.464 350.747 182.292 350.535 182.292Z" fill="#E6E6E6"/>
<path d="M356.712 182.292H354.391C354.179 182.292 354.008 182.464 354.008 182.676V183.762C354.008 183.975 354.179 184.146 354.391 184.146H356.712C356.924 184.146 357.096 183.975 357.096 183.762V182.676C357.096 182.464 356.924 182.292 356.712 182.292Z" fill="#E6E6E6"/>
<path d="M362.889 182.292H360.568C360.356 182.292 360.184 182.464 360.184 182.676V183.762C360.184 183.975 360.356 184.146 360.568 184.146H362.889C363.101 184.146 363.273 183.975 363.273 183.762V182.676C363.273 182.464 363.101 182.292 362.889 182.292Z" fill="#E6E6E6"/>
<path d="M369.066 182.292H366.745C366.533 182.292 366.361 182.464 366.361 182.676V183.762C366.361 183.975 366.533 184.146 366.745 184.146H369.066C369.278 184.146 369.45 183.975 369.45 183.762V182.676C369.45 182.464 369.278 182.292 369.066 182.292Z" fill="#E6E6E6"/>
<path d="M327.681 186.001H303.741C303.529 186.001 303.357 186.173 303.357 186.385V187.471C303.357 187.683 303.529 187.855 303.741 187.855H327.681C327.893 187.855 328.065 187.683 328.065 187.471V186.385C328.065 186.173 327.893 186.001 327.681 186.001Z" fill="#E6E6E6"/>
<path d="M396.148 36.6688H238.439C238.092 36.6611 237.818 36.374 237.825 36.0274C237.833 35.6916 238.103 35.4211 238.439 35.4137H396.148C396.495 35.4213 396.769 35.7084 396.762 36.055C396.754 36.3909 396.484 36.6614 396.148 36.6688Z" fill="#CACACA"/>
<path d="M249.174 32.2096C251.204 32.2096 252.849 30.5264 252.849 28.45C252.849 26.3737 251.204 24.6904 249.174 24.6904C247.144 24.6904 245.498 26.3737 245.498 28.45C245.498 30.5264 247.144 32.2096 249.174 32.2096Z" fill="#CCCCCC"/>
<path d="M261.871 32.2096C263.901 32.2096 265.547 30.5264 265.547 28.45C265.547 26.3737 263.901 24.6904 261.871 24.6904C259.841 24.6904 258.196 26.3737 258.196 28.45C258.196 30.5264 259.841 32.2096 261.871 32.2096Z" fill="#CCCCCC"/>
<path d="M274.568 32.2096C276.598 32.2096 278.244 30.5264 278.244 28.45C278.244 26.3737 276.598 24.6904 274.568 24.6904C272.538 24.6904 270.893 26.3737 270.893 28.45C270.893 30.5264 272.538 32.2096 274.568 32.2096Z" fill="#CCCCCC"/>
<path d="M317.132 46.1838L316.622 44.6947L381.764 10.8281L382.273 12.3173L317.132 46.1838Z" fill="#3F3D56"/>
<path d="M513.678 108.912L513.168 107.423L552.366 73.7281L552.874 75.2164L513.678 108.912Z" fill="#3F3D56"/>
<path d="M438.369 116.756L373.228 82.8894L373.737 81.4002L438.878 115.267L438.369 116.756Z" fill="#3F3D56"/>
<path d="M471.715 93.1896L433.526 30.458L434.733 29.4488L472.921 92.1804L471.715 93.1896Z" fill="#3F3D56"/>
<path d="M501.518 11.4488L464.326 11.2773V9.70403L501.518 9.87551V11.4488Z" fill="#3F3D56"/>
<path d="M568.891 21.2075H527.224C521.579 21.2075 517.003 16.629 517.003 10.9811C517.003 5.33326 521.579 0.754761 527.224 0.754761H568.891C574.536 0.754761 579.112 5.33326 579.112 10.9811C579.112 16.629 574.536 21.2075 568.891 21.2075Z" fill="black"/>
<path d="M620.78 80.9924H579.112C573.467 80.9924 568.891 76.4138 568.891 70.766C568.891 65.1181 573.467 60.5396 579.112 60.5396H620.78C626.424 60.5396 631 65.1181 631 70.766C631 76.4138 626.424 80.9924 620.78 80.9924Z" fill="black"/>
<path d="M553.406 123.151L516.214 122.981V121.407L553.406 121.578V123.151Z" fill="#3F3D56"/>
<path d="M620.78 132.911H579.112C573.467 132.911 568.891 128.332 568.891 122.684C568.891 117.037 573.467 112.458 579.112 112.458H620.78C626.424 112.458 631 117.037 631 122.684C631 128.332 626.424 132.911 620.78 132.911Z" fill="black"/>
<path d="M498.921 125.863H457.253C451.609 125.863 447.033 121.284 447.033 115.636C447.033 109.989 451.609 105.41 457.253 105.41H498.921C504.566 105.41 509.142 109.989 509.142 115.636C509.142 121.284 504.566 125.863 498.921 125.863Z" fill="black"/>
<path d="M442.316 20.4527H400.648C395.004 20.4527 390.428 15.8742 390.428 10.2264C390.428 4.5785 395.004 0 400.648 0H442.316C447.96 0 452.536 4.5785 452.536 10.2264C452.536 15.8742 447.96 20.4527 442.316 20.4527Z" fill="black"/>
<path d="M243.153 196.016H195.982C192.508 196.016 189.693 198.833 189.693 202.309C189.693 205.785 192.508 208.602 195.982 208.602H213.278V257.374H225.857V208.602H243.153C246.627 208.602 249.443 205.785 249.443 202.309C249.443 198.833 246.627 196.016 243.153 196.016Z" fill="#3F3D56"/>
<path d="M274.287 284.385H148.118C122.835 284.292 101.445 265.662 97.8676 240.619L93.4015 224.182C84.1577 190.12 70.0775 157.561 51.5912 127.501C43.1419 113.771 38.793 100.481 48.6707 87.685C48.7548 87.576 48.8375 87.4686 48.9188 87.3627C56.8413 77.0449 96.2741 74.8114 109.129 74.377C109.637 74.3597 110.147 74.3511 110.658 74.3512H189.134C189.646 74.3512 190.156 74.3598 190.663 74.377C204.782 74.7888 217.535 82.9221 223.869 95.5541C230.628 108.451 229.765 124.019 221.624 136.09C194.057 177.523 185.617 203.503 194.258 220.327C202.616 236.601 228.237 244.921 274.888 246.511C287.425 246.938 293.178 256.706 293.219 265.6C293.258 274.265 287.726 283.831 275.488 284.36C275.09 284.376 274.69 284.385 274.287 284.385Z" fill="#3F3D56"/>
<path d="M169.551 396.481H216.722C220.196 396.481 223.012 393.664 223.012 390.188C223.012 386.713 220.196 383.895 216.722 383.895H199.426V277.698H186.847V383.895H169.551C166.077 383.895 163.262 386.713 163.262 390.188C163.262 393.664 166.077 396.481 169.551 396.481Z" fill="#3F3D56"/>
<path d="M212.245 353.668L220.371 358.085L241.883 328.325L229.889 321.806L212.245 353.668Z" fill="#A0616A"/>
<path d="M216.157 343.064L230.909 347.686L228.561 353.87L238.677 368.56C239.971 370.439 239.498 373.012 237.62 374.307C236.502 375.078 235.078 375.25 233.809 374.767L216.636 368.239L215.999 360.997L212.52 366.674L206.045 364.213L216.157 343.064Z" fill="#2F2E41"/>
<path d="M232.777 53.5512C233.505 58.5442 230.049 63.1823 225.059 63.9106C224.527 63.9883 223.989 64.0187 223.452 64.0017L192.122 130.705L182.295 116.994L214.547 53.9204C215.043 48.8715 219.535 45.1804 224.581 45.6763C228.803 46.0911 232.192 49.3468 232.777 53.5512Z" fill="#A0616A"/>
<path d="M128.804 144.192C128.804 144.192 127.965 155.845 141.136 158.131C154.307 160.416 189.517 138.138 195.299 134.717C201.082 131.297 211.858 88.2578 211.858 88.2578L202.486 72.3976C190.916 87.0425 181.829 100.547 181.278 110.133L128.804 144.192Z" fill="black"/>
<path d="M144.01 184.332L146.854 196.561C146.854 196.561 146.882 207.838 148.878 209.917C150.86 211.986 194.442 207.831 194.442 207.831C194.442 207.831 189.821 189.66 189.882 175.91L144.01 184.332Z" fill="#A0616A"/>
<path d="M236.077 340.758L220.354 332.105C220.055 311.633 232.361 283.928 246.958 254.91C214.313 260.528 183.516 262.327 156.878 255.531C147.778 253.127 142.294 243.858 144.564 234.719C144.667 234.287 144.787 233.861 144.923 233.439C148.111 223.706 140.963 217.605 147.538 206.9C164.831 200.991 181.259 199.322 196.281 204.541L205.694 225.364L252.348 219.323C261.782 218.195 270.344 224.932 271.472 234.371C271.477 234.414 271.482 234.457 271.487 234.501C271.549 235.007 271.59 235.516 271.609 236.027C262.176 280.278 251.598 320.094 236.077 340.758Z" fill="#2F2E41"/>
<path d="M137.677 106.908L155.649 105.846C157.203 105.754 158.644 106.659 159.238 108.099L164.317 120.419L185.426 137.876C185.426 137.876 193.784 148.518 193.803 162.261C193.822 176.005 196.768 207.816 196.768 207.816C196.768 207.816 184.571 190.636 177.042 195.205C175.761 195.983 175.311 197.572 173.969 198.376C173.3 198.777 171.754 198.387 171.078 198.788C160.703 204.951 149.884 210.971 148.873 209.915C146.888 207.843 144.48 197.252 144.48 197.252L128.029 136.769C126.223 130.326 127.39 123.412 131.212 117.92C132.361 116.301 133.566 115.096 134.685 114.897C137.198 114.362 135.861 108.727 137.677 106.908Z" fill="black"/>
<path d="M290.565 379.288L298.152 374.01L280.965 341.566L269.768 349.355L290.565 379.288Z" fill="#A0616A"/>
<path d="M291.712 357.518L279.822 368.153C260.916 347.074 246.623 317.512 234.511 283.94C202.776 274.64 178.844 259.642 157.951 241.834C150.864 235.833 145.55 228.124 151.595 220.814C151.878 220.472 152.173 220.142 152.481 219.823C159.618 212.483 177.718 213.882 188.318 207.158L211.999 232.485L210.51 239.275L254.99 254.351C263.944 257.491 268.659 267.299 265.521 276.259C265.505 276.303 265.49 276.347 265.474 276.39C265.307 276.873 265.12 277.348 264.913 277.815L291.712 357.518Z" fill="#2F2E41"/>
<path d="M286.142 377.148L298.286 367.579L302.06 373.011L319.889 372.956C322.17 372.949 324.024 374.793 324.032 377.075C324.036 378.433 323.373 379.706 322.259 380.481L307.174 390.973L300.842 387.409L303.559 393.488L297.872 397.444L286.142 377.148Z" fill="#2F2E41"/>
<path d="M164.217 259.335C159.575 257.363 157.409 252 159.379 247.355C159.589 246.86 159.842 246.384 160.136 245.934L119.448 184.495L136.261 183.217L173.371 243.557C177.425 246.604 178.244 252.362 175.199 256.419C172.652 259.813 168.111 261.019 164.217 259.335Z" fill="#A0616A"/>
<path d="M140.822 123.354C140.822 123.354 131.307 116.583 122.513 126.656C113.719 136.73 114.453 178.407 114.371 185.128C114.345 187.233 117.382 191.774 121.567 197.019C123.446 199.374 125.555 201.871 127.723 204.353C128.978 205.79 127.897 208.779 129.156 210.175C130.409 211.564 134.003 211.359 135.194 212.648C140.85 218.764 145.445 223.42 145.445 223.42L163.858 223.647C164.065 209.951 154.692 197.726 142.65 185.911L140.822 123.354Z" fill="black"/>
<path d="M122.263 63.7242C120.52 64.9832 118.686 66.2801 116.559 66.5921C114.431 66.904 111.941 65.8752 111.352 63.8063C110.633 61.2766 112.916 58.9734 114.967 57.3294L121.474 52.1163C122.665 51.0589 124.01 50.1888 125.463 49.5355C126.941 48.8848 128.634 48.9415 130.066 49.6895C131.487 50.6502 132.31 52.28 132.238 53.9952C132.145 55.6859 131.587 57.3181 130.627 58.7117C128.186 62.5181 124.298 65.1625 119.863 66.0328" fill="#2F2E41"/>
<path d="M171.61 199.162H124.439C120.966 199.162 118.15 201.98 118.15 205.456C118.15 208.931 120.966 211.749 124.439 211.749H141.735V260.521H154.314V211.749H171.61C175.084 211.749 177.9 208.931 177.9 205.456C177.9 201.98 175.084 199.162 171.61 199.162Z" fill="#3F3D56"/>
<path d="M125.153 50.521C125.343 45.8026 120.318 42.0664 115.609 42.3618C110.9 42.6571 106.852 45.9712 104.182 49.8646C101.512 53.7546 99.9085 58.2604 97.8054 62.4841C95.7022 66.7078 92.9016 70.8433 88.7224 73.032C84.544 75.2175 78.7278 74.8276 75.8397 71.0961C74.0184 73.8597 73.6223 77.3262 74.7732 80.4298C75.9555 83.4933 78.1605 86.0533 81.0141 87.6755C82.1499 88.3495 83.3632 88.8833 84.6274 89.2653C85.1486 87.8575 85.882 86.5378 86.8021 85.3519C86.3865 86.7558 86.2279 88.2233 86.3339 89.6837C88.2824 90.0574 90.2869 90.0258 92.2226 89.5909C96.0769 88.7282 99.2995 86.0986 100.919 82.4944C102.685 78.3112 101.786 73.5417 102.163 69.0167C102.538 64.4908 105.264 59.3242 109.802 59.2504C113.258 59.1935 112.801 59.4786 114.991 62.1545" fill="#2F2E41"/>
<path d="M156.538 75.3147C156.538 86.6104 147.386 95.7674 136.097 95.7674C124.808 95.7674 114.084 82.6772 114.084 71.3815C114.084 60.0858 124.808 54.862 136.097 54.862C147.386 54.862 156.538 64.019 156.538 75.3147Z" fill="#2F2E41"/>
<path d="M146.17 99.8249C156.722 97.6645 163.525 87.3544 161.366 76.7966C159.207 66.2388 148.903 59.4313 138.351 61.5916C127.8 63.7519 120.996 74.062 123.155 84.6199C125.314 95.1777 135.618 101.985 146.17 99.8249Z" fill="#A0616A"/>
<path d="M166.758 77.6746C160.985 79.2519 155.157 80.9052 152.906 77.6746C152.468 75.5326 151.64 73.4898 150.461 71.649C150.239 73.7105 149.756 75.7354 149.022 77.6746C141.729 79.2609 134.912 79.6401 129.022 77.6746C128.212 79.1404 127.742 80.7696 127.646 82.4417C127.355 82.2586 127.05 82.0982 126.734 81.9619C126.355 81.7476 125.902 81.7074 125.492 81.8517C125.208 82.0233 125.019 82.3166 124.981 82.6462C124.942 82.9744 124.957 83.3067 125.028 83.6295C125.11 84.7547 125.446 85.8466 126.011 86.8233C126.462 87.5036 127.178 87.963 127.984 88.0898C128.801 92.6917 135.311 98.914 135.311 98.914C115.656 99.7007 115.656 86.3592 115.656 73.7414L118.015 69.0216H125.877V58.7952H147.89C158.31 58.7979 166.756 67.249 166.758 77.6746Z" fill="#2F2E41"/>
<path d="M345.879 398.758L0.940981 399C0.423994 399.003 0.00270962 398.586 1.30079e-05 398.068C-0.0026836 397.551 0.41423 397.129 0.931216 397.127H0.940981L345.879 396.885C346.396 396.887 346.814 397.307 346.812 397.825C346.811 398.34 346.394 398.757 345.879 398.758Z" fill="#CACACA"/>
<path d="M576.231 398.758L397.964 399C397.447 399.003 397.025 398.586 397.023 398.068C397.02 397.551 397.437 397.129 397.954 397.127H397.964L576.231 396.885C576.748 396.883 577.168 397.301 577.17 397.819C577.172 398.336 576.754 398.757 576.237 398.758H576.231Z" fill="#CACACA"/>
<path d="M353.762 116.423H286.188C280.318 116.417 275.562 111.658 275.556 105.785V60.9833C275.562 55.1107 280.318 50.3517 286.188 50.3452H353.763C359.632 50.3517 364.388 55.1107 364.394 60.9833V105.785C364.388 111.658 359.632 116.417 353.762 116.423ZM286.188 51.9184C281.186 51.9241 277.134 55.9793 277.128 60.9833V105.785C277.134 110.789 281.186 114.844 286.188 114.85H353.763C358.764 114.844 362.816 110.789 362.822 105.785V60.9833C362.816 55.9793 358.764 51.9241 353.763 51.9184L286.188 51.9184Z" fill="#E6E6E6"/>
<path d="M306.21 64.5047H288.135V66.078H306.21V64.5047Z" fill="#E6E6E6"/>
<path d="M328.23 70.7979H288.135V72.3712H328.23V70.7979Z" fill="#E6E6E6"/>
<path d="M328.23 76.3044H288.135V77.8777H328.23V76.3044Z" fill="#E6E6E6"/>
<path d="M339.236 81.8109H288.135V83.3842H339.236V81.8109Z" fill="#E6E6E6"/>
<path d="M314.865 87.3174H288.135V88.8907H314.865V87.3174Z" fill="#E6E6E6"/>
<path d="M336.878 92.8239H288.135V94.3972H336.878V92.8239Z" fill="#E6E6E6"/>
<path d="M296.783 98.3304H288.135V99.9037H296.783V98.3304Z" fill="#E6E6E6"/>
<path d="M287.546 30.6463C287.47 30.6463 287.393 30.6167 287.336 30.5578L285.658 28.842C285.546 28.7277 285.546 28.545 285.658 28.4307L287.336 26.715C287.45 26.599 287.636 26.5971 287.751 26.7104C287.868 26.824 287.87 27.0103 287.756 27.1264L286.28 28.6364L287.756 30.1465C287.87 30.2625 287.868 30.4488 287.751 30.5624C287.694 30.6184 287.62 30.6463 287.546 30.6463Z" fill="#CCCCCC"/>
<path d="M290.365 30.6463C290.29 30.6463 290.216 30.6184 290.159 30.5624C290.043 30.4488 290.041 30.2627 290.155 30.1465L291.631 28.6364L290.155 27.1264C290.041 27.0103 290.043 26.824 290.159 26.7104C290.275 26.5967 290.461 26.5988 290.575 26.715L292.252 28.4307C292.364 28.545 292.364 28.7277 292.252 28.842L290.575 30.5578C290.517 30.6167 290.441 30.6463 290.365 30.6463Z" fill="#CCCCCC"/>
<path d="M378.121 26.3879H375.002C374.646 26.3879 374.358 26.6761 374.358 27.0321V30.156C374.358 30.5119 374.646 30.8002 375.002 30.8002H378.121C378.477 30.8002 378.768 30.5119 378.768 30.156V27.0321C378.768 26.6761 378.477 26.3879 378.121 26.3879Z" fill="#CCCCCC"/>
<path d="M370.478 26.3879H367.358C367.003 26.3879 366.715 26.6761 366.715 27.0321V30.156C366.715 30.5119 367.003 30.8002 367.358 30.8002H370.478C370.833 30.8002 371.124 30.5119 371.124 30.156V27.0321C371.124 26.6761 370.833 26.3879 370.478 26.3879Z" fill="#CCCCCC"/>
<path d="M385.324 26.5349H382.205C381.849 26.5349 381.561 26.8232 381.561 27.1791V30.303C381.561 30.659 381.849 30.9472 382.205 30.9472H385.324C385.679 30.9472 385.97 30.659 385.97 30.303V27.1791C385.97 26.8232 385.679 26.5349 385.324 26.5349Z" fill="#CCCCCC"/>
<path d="M338.31 27.7233H313.377C312.942 27.7233 312.592 28.0763 312.592 28.5087C312.592 28.9411 312.942 29.2941 313.377 29.2941H338.31C338.742 29.2941 339.095 28.9411 339.095 28.5087C339.095 28.0763 338.742 27.7233 338.31 27.7233Z" fill="#CCCCCC"/>
</g>
<defs>
<clipPath id="clip0_0_1">
<rect width="631" height="399" fill="white"/>
</clipPath>
</defs>
</svg>
